<svg width="320" height="320" viewBox="0 0 320 320" fill="none" xmlns="http://www.w3.org/2000/svg">
<path d="M262.4 0H57.6C25.7884 0 0 25.7884 0 57.6V262.4C0 294.212 25.7884 320 57.6 320H262.4C294.212 320 320 294.212 320 262.4V57.6C320 25.7884 294.212 0 262.4 0Z" fill="#50D5D6"/>
<path fill-rule="evenodd" clip-rule="evenodd" d="M138.062 163H80.823C60.8761 163 47 178.439 47 200.632V235.368C47 257.561 60.8761 273 80.823 273H145V247.43H81.6903C77.354 247.43 73.0177 240.193 73.0177 235.368V200.632C73.0177 195.807 77.354 188.088 81.6903 188.088H138.062V163Z" fill="#081A2F"/>
<path d="M145 273V52.5L155 46L174 66V273H145Z" fill="#081A2F"/>
<path fill-rule="evenodd" clip-rule="evenodd" d="M174 163L234.767 163C266.14 163 274 175.865 274 196.45V273H249.5V196.45C249.5 189.374 245.552 186.158 234.767 186.158L174 186.158V163Z" fill="#081A2F"/>
</svg>
